<?xml version="1.0" encoding="utf-8"?>
<!-- Generator: Adobe Illustrator 22.1.0, SVG Export Plug-In . SVG Version: 6.00 Build 0)  -->
<svg version="1.1" id="Layer_1" xmlns="http://www.w3.org/2000/svg" xmlns:xlink="http://www.w3.org/1999/xlink" x="0px" y="0px"
	 viewBox="0 0 48 36" style="enable-background:new 0 0 48 36;" xml:space="preserve">
<style type="text/css">
	.st0{fill:#AFAFAF;}
</style>
<g transform="matrix(1.6698 0 0 1.6698 -109.6 -45.25)">
	<g>
		<path class="st0" d="M92.8,27.4c-0.1,0-0.3,0.1-0.4,0.2L75,39.2l-7.4-5.6c-0.4-0.3-0.9-0.3-1.2,0.1s-0.4,0.8-0.2,1.2l8,13
			c0.2,0.3,0.4,0.4,0.7,0.5s0.6-0.1,0.8-0.3l18-19c0.3-0.3,0.4-0.8,0.2-1.1S93.3,27.3,92.8,27.4z"/>
		<g>
			
				<image style="overflow:visible;" width="47.5" height="35.8" xlink:href="CE466A3C5DB4C07D.png"  transform="matrix(0.5989 0 0 0.5989 65.7976 27.1648)"/>
		</g>
	</g>
	<g>
		<path class="st0" d="M93,28c-0.1,0-0.1,0-0.2,0.1L75,39.9L67.2,34c-0.1-0.2-0.4-0.2-0.6,0s-0.2,0.4,0,0.6l8,13
			c0.1,0.1,0.2,0.2,0.3,0.2s0.2,0,0.3-0.1l18-19c0.1-0.1,0.2-0.3,0.1-0.5S93.1,27.9,93,28z"/>
		<g>
			
				<image style="overflow:visible;" width="45.6" height="33.8" xlink:href="CE466A3C5DB4C07F.png"  transform="matrix(0.5989 0 0 0.5989 66.3294 27.7288)"/>
		</g>
	</g>
	<g>
		<polygon class="st0" points="92.9,28.5 75,40.4 67.1,34.5 75,47.3 92.9,28.5 		"/>
		<g>
			
				<image style="overflow:visible;" width="44.8" height="32.4" xlink:href="CE466A3C5DB4C07A.png"  transform="matrix(0.5989 0 0 0.5989 66.2801 28.2725)"/>
		</g>
	</g>
</g>
</svg>
